<svg width="1000" height="1000" viewBox="0 0 1000 1000" fill="none" xmlns="http://www.w3.org/2000/svg">
<path d="M452 0H548V97H452V0ZM452 903H548V1000H452V903ZM832 545C810.667 531.667 798 507 794 471C777.333 473 762.667 472 750 468C731.333 461.333 718 447.333 710 426C706 417.333 702 401.667 698 379C694 356.333 689.667 339 685 327C677 305.667 666 287 652 271C630 247.667 605.333 231 578 221C553.333 211.667 527.333 208 500 210C520 222.667 532.333 238 537 256C541 271.333 538.667 285 530 297C521.333 309 509.333 315.333 494 316C478.667 316.667 464.667 312.667 452 304C446.667 300.667 435 291.667 417 277C402.333 265 389 256.333 377 251C359.667 243 340.333 239 319 239C302.333 239 285.333 243.333 268 252C284 254 297.333 259.333 308 268C316.667 276 324.667 286.667 332 300C334 304.667 339.333 317.667 348 339C354.667 354.333 363.667 366.333 375 375C386.333 383.667 401 391 419 397C410.333 401 397.667 403 381 403C361.667 403 343.333 398 326 388C312.667 380.667 297.667 368.667 281 352C264.333 335.333 250 323.333 238 316C219.333 305.333 199 300 177 300C166.333 300 156.667 301.333 148 304C139.333 306.667 133 309.667 129 313C144.333 315 158.333 319.667 171 327C186.333 337 194 348.333 194 361C194 368.333 191.667 374 187 378C182.333 382 176 383.667 168 383C160 382.333 152.333 378.333 145 371C133 357.667 118.667 346.667 102 338C85.3333 329.333 67.3333 325.333 48 326C39.3333 326 30.6667 327 22 329C13.3333 331 6 334.333 0 339C22.6667 342.333 42 351.667 58 367C74 382.333 89 406.333 103 439C113 462.333 124 479.333 136 490C152 505.333 173.333 513 200 513C203.333 513 213 512 229 510C242.333 508.667 252.667 508.667 260 510C271.333 511.333 280.333 515.667 287 523C293 528.333 297 535.333 299 544C300.333 548 302 555.667 304 567C305.333 577 307.333 584.667 310 590C316.667 604 326 614.333 338 621C352 628.333 370.667 632 394 632C381.333 644.667 363.333 651.667 340 653C318.667 654.333 297 651.333 275 644C253 636.667 236.667 627.333 226 616C227.333 646.667 235.667 673.333 251 696C267.667 720.667 290.333 737.333 319 746C351.667 755.333 389.333 754 432 742C444 738.667 454 738.333 462 741C470 743.667 476.333 751.667 481 765C491.667 792.333 515.333 804 552 800C584 796.667 610.333 798.667 631 806C651.667 813.333 671.333 827.333 690 848C695.333 794 669.667 749 613 713C603 707 595.333 700.667 590 694C586 688.667 583 682.333 581 675L577 658C587.667 670 600.333 679.333 615 686C626.333 691.333 640.667 696 658 700C712.667 706.667 749.333 724 768 752C769.333 736.667 767.333 722.667 762 710C758 700 751.667 690.333 743 681C736.333 674.333 727.667 667 717 659C704.333 649 696.667 643 694 641C686.667 634.333 682.333 628.333 681 623C693.667 631 705.667 636.667 717 640C728.333 643.333 741 645 755 645C759.667 644.333 768.667 642.333 782 639C795.333 635.667 805.667 634.333 813 635C823.667 635 833 637.333 841 642C851 648 860 657.667 868 671C887.333 659 910 654 936 656C959.333 658 980.667 665 1000 677C992 657 980.667 639.667 966 625C954.667 613 940 602 922 592C914 587.333 898.333 579.667 875 569C856.333 559.667 842 551.667 832 545ZM548 581H452V484H548V581Z" fill="white"/>
</svg>
