<svg width="64" height="64" viewBox="0 0 64 64" fill="none" xmlns="http://www.w3.org/2000/svg">
<path d="M17.6076 26.6669L26.6667 19.2548V44.7456L17.6076 37.3336H8.00008V26.6669H17.6076ZM5.33341 42.6669H15.7038L29.8225 54.2184C30.0606 54.4133 30.359 54.5197 30.6667 54.5197C31.403 54.5197 32.0001 53.9229 32.0001 53.1864V10.8138C32.0001 10.5061 31.8937 10.2077 31.6987 9.96952C31.2323 9.3996 30.3923 9.3156 29.8225 9.78189L15.7038 21.3335H5.33341C3.86067 21.3335 2.66675 22.5274 2.66675 24.0002V40.0003C2.66675 41.4731 3.86067 42.6669 5.33341 42.6669ZM61.3334 32C61.3334 40.7787 57.4771 48.6568 51.3659 54.0325L47.5854 50.2517C52.7355 45.8499 56.0001 39.3061 56.0001 32C56.0001 24.6938 52.7355 18.1501 47.5854 13.7482L51.3659 9.96744C57.4771 15.3431 61.3334 23.2212 61.3334 32ZM48.0001 32C48.0001 26.9021 45.6161 22.3613 41.9022 19.4313L38.0913 23.2422C40.8569 25.1695 42.6667 28.3733 42.6667 32C42.6667 35.6267 40.8569 38.8304 38.0913 40.7576L41.9022 44.5685C45.6161 41.6387 48.0001 37.0976 48.0001 32Z" fill="black"/>
</svg>
