<svg width="64" height="64" viewBox="0 0 64 64" fill="none" xmlns="http://www.w3.org/2000/svg">
<path d="M31.9999 58.6666C17.2723 58.6666 5.33325 46.7274 5.33325 31.9999C5.33325 17.2723 17.2723 5.33325 31.9999 5.33325C46.7274 5.33325 58.6666 17.2723 58.6666 31.9999C58.6666 46.7274 46.7274 58.6666 31.9999 58.6666ZM31.9999 53.3332C43.7821 53.3332 53.3332 43.7821 53.3332 31.9999C53.3332 20.2178 43.7821 10.6666 31.9999 10.6666C20.2178 10.6666 10.6666 20.2178 10.6666 31.9999C10.6666 43.7821 20.2178 53.3332 31.9999 53.3332ZM28.325 22.4388L41.3354 31.1125C41.8255 31.4391 41.958 32.1015 41.6311 32.5917C41.553 32.7087 41.4525 32.8093 41.3354 32.8874L28.325 41.561C27.8348 41.8879 27.1724 41.7554 26.8458 41.2652C26.729 41.09 26.6666 40.8842 26.6666 40.6735V23.3263C26.6666 22.7372 27.1442 22.2597 27.7332 22.2597C27.9439 22.2597 28.1498 22.322 28.325 22.4388Z" fill="white"/>
</svg>
