<svg width="64" height="64" viewBox="0 0 64 64" fill="none" xmlns="http://www.w3.org/2000/svg">
<path d="M31.9997 58.6668C17.2721 58.6668 5.33301 46.7276 5.33301 32.0002C5.33301 17.2726 17.2721 5.3335 31.9997 5.3335C46.7271 5.3335 58.6663 17.2726 58.6663 32.0002C58.6663 46.7276 46.7271 58.6668 31.9997 58.6668ZM31.9997 53.3335C43.7818 53.3335 53.333 43.7823 53.333 32.0002C53.333 20.2181 43.7818 10.6668 31.9997 10.6668C20.2176 10.6668 10.6663 20.2181 10.6663 32.0002C10.6663 43.7823 20.2176 53.3335 31.9997 53.3335ZM28.3247 22.4391L41.3351 31.1127C41.8253 31.4394 41.9578 32.1018 41.6309 32.5919C41.5527 32.709 41.4522 32.8095 41.3351 32.8876L28.3247 41.5612C27.8346 41.8882 27.1722 41.7556 26.8455 41.2655C26.7287 41.0903 26.6663 40.8844 26.6663 40.6738V23.3266C26.6663 22.7375 27.1439 22.2599 27.733 22.2599C27.9437 22.2599 28.1495 22.3222 28.3247 22.4391Z" fill="black"/>
</svg>
