<svg width="59" height="59" viewBox="0 0 59 59" fill="none" xmlns="http://www.w3.org/2000/svg">
<path d="M20.2288 7.73199L27.1798 0.78106C28.2211 -0.260353 29.9096 -0.260353 30.951 0.78106L37.9019 7.73199H47.732C49.2048 7.73199 50.3987 8.92591 50.3987 10.3987V20.2288L57.3496 27.1798C58.391 28.2211 58.391 29.9096 57.3496 30.951L50.3987 37.9019V47.732C50.3987 49.2048 49.2048 50.3987 47.732 50.3987H37.9019L30.951 57.3496C29.9096 58.391 28.2211 58.391 27.1798 57.3496L20.2288 50.3987H10.3987C8.92591 50.3987 7.73199 49.2048 7.73199 47.732V37.9019L0.78106 30.951C-0.260353 29.9096 -0.260353 28.2211 0.78106 27.1798L7.73199 20.2288V10.3987C7.73199 8.92591 8.92591 7.73199 10.3987 7.73199H20.2288ZM29.0654 37.0654C33.4835 37.0654 37.0654 33.4835 37.0654 29.0654C37.0654 24.647 33.4835 21.0653 29.0654 21.0653C24.647 21.0653 21.0653 24.647 21.0653 29.0654C21.0653 33.4835 24.647 37.0654 29.0654 37.0654Z" fill="#BD5BFF"/>
</svg>
