<svg width="54" height="54" viewBox="0 0 54 54" fill="none" xmlns="http://www.w3.org/2000/svg">
<path d="M0.574 32.1668C-0.20744 28.4745 -0.175787 24.738 0.57624 21.1809C3.53603 21.5294 6.11947 20.5492 6.96421 18.5097C7.80899 16.4703 6.67533 13.9504 4.336 12.104C6.31955 9.05691 8.93931 6.3924 12.1026 4.33422C13.9491 6.67475 16.4698 7.8092 18.5097 6.96422C20.5497 6.11923 21.5299 3.53472 21.1806 0.574004C24.8726 -0.207436 28.6091 -0.175783 32.1665 0.576217C31.8179 3.536 32.7982 6.11944 34.8377 6.96422C36.8769 7.80899 39.3969 6.67531 41.2433 4.336C44.2905 6.31955 46.955 8.93931 49.0131 12.1026C46.6726 13.9491 45.5382 16.4698 46.383 18.5097C47.2281 20.5497 49.8126 21.53 52.7734 21.1806C53.5547 24.8726 53.523 28.6092 52.771 32.1665C49.8113 31.818 47.2278 32.7982 46.383 34.8374C45.5382 36.8769 46.6721 39.3969 49.0113 41.2433C47.0278 44.2902 44.4081 46.9548 41.2446 49.0132C39.3982 46.6726 36.8774 45.538 34.8377 46.383C32.7977 47.2281 31.8174 49.8126 32.1667 52.7732C28.4745 53.5548 24.7379 53.523 21.1809 52.771C21.5294 49.8113 20.5492 47.2278 18.5097 46.383C16.4703 45.5382 13.9504 46.6718 12.104 49.0113C9.05691 47.0278 6.3924 44.4081 4.33424 41.2446C6.67475 39.3982 7.8092 36.8774 6.96421 34.8374C6.11925 32.7977 3.53472 31.8174 0.574 32.1668ZM5.34048 27.2342C8.27331 28.046 10.6936 29.9044 11.8916 32.7966C13.0895 35.6886 12.6923 38.7142 11.1924 41.362C11.4499 41.6332 11.7144 41.8977 11.9858 42.1548C14.6334 40.655 17.6588 40.258 20.5507 41.4558C23.4427 42.6537 25.3011 45.0737 26.1129 48.0062C26.4865 48.0164 26.8603 48.0166 27.2342 48.0068C28.0459 45.074 29.9043 42.6537 32.7966 41.4558C35.6886 40.2577 38.7142 40.655 41.3619 42.155C41.6334 41.8974 41.8977 41.6329 42.1547 41.3614C40.655 38.714 40.2579 35.6884 41.4558 32.7966C42.6537 29.9046 45.0737 28.0462 48.0062 27.2345C48.0163 26.8609 48.0166 26.4868 48.0067 26.1129C45.0739 25.3014 42.6537 23.4428 41.4558 20.5507C40.2577 17.6586 40.655 14.633 42.155 11.9853C41.8974 11.714 41.6329 11.4497 41.3614 11.1926C38.7139 12.6923 35.6886 13.0894 32.7966 11.8916C29.9046 10.6937 28.0462 8.2736 27.2345 5.34102C26.8609 5.33094 26.487 5.33075 26.1129 5.34048C25.3014 8.27331 23.4427 10.6936 20.5507 11.8916C17.6586 13.0895 14.633 12.6922 11.9853 11.1924C11.714 11.4499 11.4497 11.7144 11.1926 11.9858C12.6923 14.6334 13.0894 17.6588 11.8916 20.5507C10.6937 23.4425 8.2736 25.3012 5.34101 26.1129C5.33093 26.4865 5.33075 26.8604 5.34048 27.2342ZM26.6737 34.6737C22.2553 34.6737 18.6737 31.0918 18.6737 26.6737C18.6737 22.2553 22.2553 18.6737 26.6737 18.6737C31.0918 18.6737 34.6737 22.2553 34.6737 26.6737C34.6737 31.0918 31.0918 34.6737 26.6737 34.6737ZM26.6737 29.3404C28.1465 29.3404 29.3403 28.1465 29.3403 26.6737C29.3403 25.2009 28.1465 24.007 26.6737 24.007C25.2009 24.007 24.007 25.2009 24.007 26.6737C24.007 28.1465 25.2009 29.3404 26.6737 29.3404Z" fill="white"/>
</svg>
